<?xml version="1.0" encoding="UTF-8" standalone="no"?>
<!-- Created with Inkscape (http://www.inkscape.org/) -->

<svg
   width="40"
   height="40"
   viewBox="0 0 10.583333 10.583333"
   version="1.1"
   id="svg5"
   xml:space="preserve"
   xmlns:inkscape="http://www.inkscape.org/namespaces/inkscape"
   xmlns:sodipodi="http://sodipodi.sourceforge.net/DTD/sodipodi-0.dtd"
   xmlns="http://www.w3.org/2000/svg"
   xmlns:svg="http://www.w3.org/2000/svg"><sodipodi:namedview
     id="namedview7"
     pagecolor="#505050"
     bordercolor="#ffffff"
     borderopacity="1"
     inkscape:showpageshadow="0"
     inkscape:pageopacity="0"
     inkscape:pagecheckerboard="1"
     inkscape:deskcolor="#505050"
     inkscape:document-units="mm"
     showgrid="false"
     showguides="true" /><defs
     id="defs2" /><g
     id="g352"
     transform="matrix(0.0021695,0,0,-0.00214669,1.5316226,12.332926)"><path
       d="m 945.82081,5314.3845 c 185.53019,-2.23 274.48029,4.45 463.23049,41.3901 234.1102,45.82 479.1204,35.51 589.0805,-224.1802 82.2301,-283.8103 -38.05,-574.0605 -210.2202,-792.6807 -373.7103,-475.4905 -522.6705,-663.3906 -536.9505,-1295.4312 -2.84,-126.2301 -20.39,-381.0803 -210.6802,-331.8803 -157.88015,40.83 -343.89031,508.1905 -455.25041,665.7406 -255.03023,351.5903 -779.6907,796.0307 -895.5308,1191.7511 -98.30009,335.8503 45.42004,937.6208 471.93042,929.4208 259.91023,-5 515.31046,-168.5602 784.3907,-184.1302"
       style="fill:#78aa32;fill-opacity:1;fill-rule:evenodd;stroke:none"
       id="path406" /><path
       d="m 376.7703,3630.403 c -264.61024,298.5003 -597.82053,633.1006 -687.27061,938.6909 -98.30009,335.8503 45.42004,937.6208 471.93042,929.4208 182.42016,-3.5 362.62032,-85.1201 546.88049,-138.8601 -6.66001,0.25 -13.12002,0.66 -19.34002,1.24 -384.59034,35.02 -775.220695,179.6401 -924.01083,-327.1803 -116.8801,-398.1204 153.140138,-835.2808 401.06036,-1134.881 58.85005,-69.9801 158.24014,-183.8202 210.75019,-268.4303"
       style="fill:#94c64b;fill-opacity:1;fill-rule:evenodd;stroke:none"
       id="path408" /><path
       d="M 433.76315,4630.4565 C 351.69438,4394.9613 376.9827,4235.3642 385.87271,4082.764 422.34274,3456.5135 1112.0511,2720.9336 1010.471,2347.2433 566.81097,1247.0275 481.56699,999.88144 1081.8976,1087.3816 c 279.8902,40.8 602.3505,83.88 845.5607,191.4901 427.1004,188.9402 435.3004,486.2605 322.0303,842.1508 -166.2301,522.3305 -16.04,916.7308 219.5202,1129.961 202.3002,183.0902 513.9105,-2.58 444.3104,-264.7602 -104.6801,-394.2404 -419.8704,-1091.341 -310.3903,-1458.2813 47.4444,-258.8126 664.8658,-229.8013 1203.4615,-109.3304 -153.3595,138.2202 -367.9042,59.6593 -438.6108,89.7303 -196.5102,-78.87 -392.0503,99.5201 -330.9603,301.9603 96.4701,319.7303 186.8002,614.0706 283.7903,940.1608 160.5401,539.7205 -311.6303,1227.8111 -857.7608,1033.511 -436.1904,-155.2002 -1005.0709,-671.6306 -759.7307,-1442.5113 176.5702,-554.8105 -149.7801,-582.5105 -352.8003,-646.5506 -464.97045,-146.6401 -60.7308,447.631 138.1994,893.9714 218.4201,489.9804 -599.36284,878.1917 -575.99282,1314.6121 -119.59361,836.7409 915.37652,1181.8692 212.54242,1199.5112 0,0 -0.8953,147.2305 -124.6222,60.5705 -123.72685,-86.66 -484.61268,-297.6255 -566.68145,-533.1208 z"
       style="fill:#94c64b;fill-opacity:1;fill-rule:evenodd;stroke:none"
       id="path410"
       sodipodi:nodetypes="zcccccccccccccccccczz" /><path
       d="m 1252.1711,4674.304 c -149.3601,-4.29 -221.8302,-116.5101 -230.7202,-269.1103 -36.47006,-626.2505 304.4841,-1241.0944 470.253,-1557.7394 24.3488,-48.5904 228.5869,-1542.5703 -213.266,-1731.8652 -431.21483,-68.9558 -106.5643,-10.4729 -436.36388,-32.5761 -240.17232,-1.009 -143.50602,181.8336 -66.51371,315.8407 167.36677,232.6371 249.09539,181.5463 410.95079,610.4979 121.9901,376.0503 30.97,727.1006 -161.2802,1069.3009 -181.32018,312.4903 -235.63023,505.1005 -340.33033,842.8808 -63.87005,214.9502 -91.20008,415.5904 1.54001,623.5805 110.9701,248.8903 346.24032,509.3005 622.58062,486.9705 l -56.8501,-357.7803"
       style="fill:#f9de1c;fill-opacity:1;fill-rule:evenodd;stroke:none"
       id="path414"
       sodipodi:nodetypes="cccccccccccc" /><path
       d="m 1202.7211,5454.1547 c 114.3501,-2.71 -19.2443,-57.5596 207.0302,-224.1902 96.8601,-71.3286 -92.6801,-217.1102 -207.0302,-214.3902 -114.3401,2.71 -207.02025,103.0901 -207.02025,224.2002 0,121.1201 92.68015,217.0902 207.02025,214.3802"
       style="fill:#94c64b;fill-opacity:1;fill-rule:evenodd;stroke:none"
       id="path420"
       sodipodi:nodetypes="cscsc" /><path
       d="m 1361.9812,5336.2146 c 156.7502,-3.71 283.8303,-89.0701 283.8303,-190.6702 0,-101.5701 -127.0801,-180.9202 -283.8303,-177.2002 -156.7601,3.72 -283.8402,89.0901 -283.8402,190.6702 0,101.5701 127.0801,180.9202 283.8402,177.2002"
       style="fill:#94c64b;fill-opacity:1;fill-rule:evenodd;stroke:none"
       id="path422" /><path
       d="m 1634.7115,5450.2547 c 69.18,-1.64 125.2701,-89.5801 125.2701,-196.4102 0,-106.8401 -56.0901,-192.1102 -125.2701,-190.4702 -69.1901,1.64 -201.5309,122.4224 -125.2701,196.4002 88.7766,86.1188 71.1975,142.7711 125.2701,190.4802"
       style="fill:#94c64b;fill-opacity:1;fill-rule:evenodd;stroke:none"
       id="path424"
       sodipodi:nodetypes="csssc" /><path
       d="m 1603.0414,5151.5344 c 253.7103,-6.03 459.4004,-83.4601 459.4004,-172.9802 0,-89.52 -205.6901,-157.2201 -459.4004,-151.2001 -253.7102,6.01 -459.3804,83.4601 -459.3804,172.9802 0,89.52 205.6702,157.2001 459.3804,151.2001"
       style="fill:#f9de1c;fill-opacity:1;fill-rule:evenodd;stroke:none"
       id="path426" /><path
       d="m 1186.1941,5338.0651 c 74.7994,-94.3109 52.4013,-25.594 78.5844,-91.9154 12.5421,-31.7692 -9.1207,-60.8267 -74.8474,-62.8253 -42.4801,1 -76.9101,42.2901 -76.9101,92.2001 0,49.91 9.4073,101.3264 51.8873,100.3164"
       style="fill:#1c1a19;fill-opacity:1;fill-rule:evenodd;stroke:none"
       id="path428"
       sodipodi:nodetypes="cscsc" /><path
       d="m 1669.5815,5346.3646 c 31.53,-0.75 57.09,-41.1201 57.09,-90.1601 0,-49.0401 -25.56,-88.1901 -57.09,-87.4401 -31.52,0.76 -88.6391,52.6402 -57.0801,90.1501 66.9093,79.5261 31.9352,68.3392 57.0801,87.4501"
       style="fill:#1c1a19;fill-opacity:1;fill-rule:evenodd;stroke:none"
       id="path430"
       sodipodi:nodetypes="cscsc" /><path
       d="m 1929.4117,5175.9444 c 51.5901,-1.23 93.4401,-51.14 93.4401,-111.5001 0,-60.35 -41.85,-108.2701 -93.4401,-107.0501 -51.61,1.23 -93.4401,51.1401 -93.4401,111.4901 0,60.3401 41.8301,108.2801 93.4401,107.0601"
       style="fill:#f9de1c;fill-opacity:1;fill-rule:evenodd;stroke:none"
       id="path432" /><path
       d="m 1495.4113,5222.2845 c 37.9401,-0.9 68.7201,-37.6001 68.7201,-81.9801 0,-44.4001 -30.78,-79.6401 -68.7201,-78.7501 -37.96,0.9 -68.73,37.62 -68.73,82.0001 0,44.39 30.77,79.6401 68.73,78.7301"
       style="fill:#f9de1c;fill-opacity:1;fill-rule:evenodd;stroke:none"
       id="path434" /><path
       d="m 1252.1711,4674.304 c 259.9703,-26.2601 153.2602,69.82 413.4004,192.5201 -173.4302,-17.01 -364.0903,59.0901 -537.5205,42.0801 34.91,-65.1001 89.2201,-169.4802 124.1201,-234.6002"
       style="fill:#f9de1c;fill-opacity:1;fill-rule:evenodd;stroke:none"
       id="path436" /><path
       d="m 1943.1917,4921.2142 c 4.17,-38.78 -4.33,-87.7701 -13.67,-141.6601 -13.46,-77.6501 -29.02,-167.3702 -8.19,-227.1302 43.2901,-124.1802 135.3601,-119.5502 166.8402,-3.54 15.41,-30.7101 20.78,-61.1701 17.3,-91.4301 44.93,2.72 78.5901,25.43 108.3701,54.99 -52.2201,-192.4702 -298.9603,-183.0001 -368.1303,15.42 -27.7701,79.6301 -10.3401,180.1002 4.74,267.0503 10.29,59.39 19.27,111.2401 12.06,128.2101 l 80.68,-1.91"
       style="fill:#ed0e66;fill-opacity:1;fill-rule:evenodd;stroke:none"
       id="path438" /><path
       d="m 1252.1711,4674.304 c -149.3601,-4.29 -221.8302,-116.5101 -230.7202,-269.1103 -36.47006,-626.2505 557.9363,-1392.6666 532.8363,-1779.1028 -43.2287,-665.5422 41.0504,-1635.61994 -725.6734,-1553.6118 -332.06147,70.9691 385.9072,347.0366 522.0031,1177.6289 111.4101,507.2005 -116.6458,903.8546 -315.206,1354.875 -127.36013,301.7703 -247.61023,819.4307 15.22,1073.161 69.8001,34.96 138.2202,30.07 202.4302,1.73 l -0.89,-5.57"
       style="fill:#fbca07;fill-opacity:1;fill-rule:evenodd;stroke:none"
       id="path440"
       sodipodi:nodetypes="ccscccccc" /><path
       d="m 1252.1711,4674.304 c 5.45,-0.54 10.69,-1.02 15.82,-1.47 -6.6,3.33 -13.26,6.38 -19.96,9.22 l 4.14,-7.75"
       style="fill:#fbca07;fill-opacity:1;fill-rule:evenodd;stroke:none"
       id="path442" /></g></svg>
